<svg xmlns="http://www.w3.org/2000/svg" xmlns:xlink="http://www.w3.org/1999/xlink" contentStyleType="text/css" height="2249px" preserveAspectRatio="none" style="width:653px;height:2249px;background:#FFFFFF;" version="1.1" viewBox="0 0 653 2249" width="653px" zoomAndPan="magnify"><title>BRX-Plus (Byron) -- Custom Portfolio Performance Taxonomy</title><defs/><g><text fill="#000000" font-family="sans-serif" font-size="14" font-weight="bold" lengthAdjust="spacing" textLength="422.0284" x="114.3429" y="34.9659">BRX-Plus (Byron) -- Custom Portfolio Performance Taxonomy</text><rect fill="#F1F1F1" height="39.0679" rx="12.5" ry="12.5" style="stroke:#181818;stroke-width:1.5;" width="129.1436" x="10" y="1124.4356"/><text fill="#000000" font-family="sans-serif" font-size="14" lengthAdjust="spacing" textLength="109.1436" x="20" y="1149.4016">BRX-Plus (Byron)</text><rect fill="#A3F7A5" height="58.1358" rx="12.5" ry="12.5" style="stroke:#181818;stroke-width:1.5;" width="99.3517" x="189.1436" y="255.4075"/><text fill="#000000" font-family="sans-serif" font-size="14" lengthAdjust="spacing" textLength="40.8518" x="199.1436" y="280.3734">Equity</text><text fill="#000000" font-family="sans-serif" font-size="14" lengthAdjust="spacing" textLength="79.3517" x="199.1436" y="299.4414">(AC.EQUITY)</text><rect fill="#EAF9D9" height="58.1358" rx="12.5" ry="12.5" style="stroke:#181818;stroke-width:1.5;" width="200.8793" x="338.4952" y="60.0679"/><text fill="#000000" font-family="sans-serif" font-size="14" lengthAdjust="spacing" textLength="86.0997" x="348.4952" y="85.0339">US Core Beta</text><text fill="#000000" font-family="sans-serif" font-size="14" lengthAdjust="spacing" textLength="180.8793" x="348.4952" y="104.1018">(AC.EQUITY.US.CORE_BETA)</text><path d="M288.4952,284.4754 L298.4952,284.4754 C313.4952,284.4754 313.4952,89.1358 328.4952,89.1358 L338.4952,89.1358 " fill="none" style="stroke:#181818;stroke-width:1;"/><rect fill="#EAF9D9" height="58.1358" rx="12.5" ry="12.5" style="stroke:#181818;stroke-width:1.5;" width="237.3631" x="338.4952" y="138.2038"/><text fill="#000000" font-family="sans-serif" font-size="14" lengthAdjust="spacing" textLength="125.0335" x="348.4952" y="163.1697">US Factors &amp; Styles</text><text fill="#000000" font-family="sans-serif" font-size="14" lengthAdjust="spacing" textLength="217.3631" x="348.4952" y="182.2376">(AC.EQUITY.US.FACTORS_STYLES)</text><path d="M288.4952,284.4754 L298.4952,284.4754 C313.4952,284.4754 313.4952,167.2717 328.4952,167.2717 L338.4952,167.2717 " fill="none" style="stroke:#181818;stroke-width:1;"/><rect fill="#EAF9D9" height="58.1358" rx="12.5" ry="12.5" style="stroke:#181818;stroke-width:1.5;" width="197.7293" x="338.4952" y="216.3396"/><text fill="#000000" font-family="sans-serif" font-size="14" lengthAdjust="spacing" textLength="157.8774" x="348.4952" y="241.3055">US Growth / Value / Size</text><text fill="#000000" font-family="sans-serif" font-size="14" lengthAdjust="spacing" textLength="177.7293" x="348.4952" y="260.3734">(AC.EQUITY.US.STYLE_SIZE)</text><path d="M288.4952,284.4754 L298.4952,284.4754 C313.4952,284.4754 313.4952,245.4075 328.4952,245.4075 L338.4952,245.4075 " fill="none" style="stroke:#181818;stroke-width:1;"/><rect fill="#EAF9D9" height="58.1358" rx="12.5" ry="12.5" style="stroke:#181818;stroke-width:1.5;" width="179.8514" x="338.4952" y="294.4754"/><text fill="#000000" font-family="sans-serif" font-size="14" lengthAdjust="spacing" textLength="159.8514" x="348.4952" y="319.4414">International Developed</text><text fill="#000000" font-family="sans-serif" font-size="14" lengthAdjust="spacing" textLength="143.7654" x="348.4952" y="338.5093">(AC.EQUITY.INTL.DEV)</text><path d="M288.4952,284.4754 L298.4952,284.4754 C313.4952,284.4754 313.4952,323.5433 328.4952,323.5433 L338.4952,323.5433 " fill="none" style="stroke:#181818;stroke-width:1;"/><rect fill="#EAF9D9" height="58.1358" rx="12.5" ry="12.5" style="stroke:#181818;stroke-width:1.5;" width="157.8434" x="338.4952" y="372.6113"/><text fill="#000000" font-family="sans-serif" font-size="14" lengthAdjust="spacing" textLength="121.1415" x="348.4952" y="397.5772">Emerging Markets</text><text fill="#000000" font-family="sans-serif" font-size="14" lengthAdjust="spacing" textLength="137.8434" x="348.4952" y="416.6451">(AC.EQUITY.INTL.EM)</text><path d="M288.4952,284.4754 L298.4952,284.4754 C313.4952,284.4754 313.4952,401.6792 328.4952,401.6792 L338.4952,401.6792 " fill="none" style="stroke:#181818;stroke-width:1;"/><rect fill="#EAF9D9" height="58.1358" rx="12.5" ry="12.5" style="stroke:#181818;stroke-width:1.5;" width="230.0272" x="338.4952" y="450.7471"/><text fill="#000000" font-family="sans-serif" font-size="14" lengthAdjust="spacing" textLength="114.7576" x="348.4952" y="475.713">Sector / Thematic</text><text fill="#000000" font-family="sans-serif" font-size="14" lengthAdjust="spacing" textLength="210.0272" x="348.4952" y="494.7809">(AC.EQUITY.SECTOR_THEMATIC)</text><path d="M288.4952,284.4754 L298.4952,284.4754 C313.4952,284.4754 313.4952,479.815 328.4952,479.815 L338.4952,479.815 " fill="none" style="stroke:#181818;stroke-width:1;"/><path d="M139.1436,1143.9696 L149.1436,1143.9696 C164.1436,1143.9696 164.1436,284.4754 179.1436,284.4754 L189.1436,284.4754 " fill="none" style="stroke:#181818;stroke-width:1;"/><rect fill="#B790D8" height="58.1358" rx="12.5" ry="12.5" style="stroke:#181818;stroke-width:1.5;" width="150.0315" x="189.1436" y="841.4263"/><text fill="#000000" font-family="sans-serif" font-size="14" lengthAdjust="spacing" textLength="88.0037" x="199.1436" y="866.3922">Fixed Income</text><text fill="#000000" font-family="sans-serif" font-size="14" lengthAdjust="spacing" textLength="130.0315" x="199.1436" y="885.4601">(AC.FIXED_INCOME)</text><rect fill="#ECE1F5" height="58.1358" rx="12.5" ry="12.5" style="stroke:#181818;stroke-width:1.5;" width="137.5295" x="389.175" y="528.8829"/><text fill="#000000" font-family="sans-serif" font-size="14" lengthAdjust="spacing" textLength="103.8936" x="399.175" y="553.8489">Core Aggregate</text><text fill="#000000" font-family="sans-serif" font-size="14" lengthAdjust="spacing" textLength="117.5295" x="399.175" y="572.9168">(AC.FI.CORE_AGG)</text><path d="M339.175,870.4942 L349.175,870.4942 C364.175,870.4942 364.175,557.9508 379.175,557.9508 L389.175,557.9508 " fill="none" style="stroke:#181818;stroke-width:1;"/><rect fill="#ECE1F5" height="58.1358" rx="12.5" ry="12.5" style="stroke:#181818;stroke-width:1.5;" width="146.0275" x="389.175" y="607.0188"/><text fill="#000000" font-family="sans-serif" font-size="14" lengthAdjust="spacing" textLength="116.3536" x="399.175" y="631.9847">Treasuries (Short)</text><text fill="#000000" font-family="sans-serif" font-size="14" lengthAdjust="spacing" textLength="126.0275" x="399.175" y="651.0526">(AC.FI.TSYS.SHORT)</text><path d="M339.175,870.4942 L349.175,870.4942 C364.175,870.4942 364.175,636.0867 379.175,636.0867 L389.175,636.0867 " fill="none" style="stroke:#181818;stroke-width:1;"/><rect fill="#ECE1F5" height="58.1358" rx="12.5" ry="12.5" style="stroke:#181818;stroke-width:1.5;" width="200.1653" x="389.175" y="685.1546"/><text fill="#000000" font-family="sans-serif" font-size="14" lengthAdjust="spacing" textLength="166.8514" x="399.175" y="710.1205">Treasuries (Intermediate)</text><text fill="#000000" font-family="sans-serif" font-size="14" lengthAdjust="spacing" textLength="180.1653" x="399.175" y="729.1884">(AC.FI.TSYS.INTERMEDIATE)</text><path d="M339.175,870.4942 L349.175,870.4942 C364.175,870.4942 364.175,714.2225 379.175,714.2225 L389.175,714.2225 " fill="none" style="stroke:#181818;stroke-width:1;"/><rect fill="#ECE1F5" height="58.1358" rx="12.5" ry="12.5" style="stroke:#181818;stroke-width:1.5;" width="139.6435" x="389.175" y="763.2904"/><text fill="#000000" font-family="sans-serif" font-size="14" lengthAdjust="spacing" textLength="113.7776" x="399.175" y="788.2564">Treasuries (Long)</text><text fill="#000000" font-family="sans-serif" font-size="14" lengthAdjust="spacing" textLength="119.6435" x="399.175" y="807.3243">(AC.FI.TSYS.LONG)</text><path d="M339.175,870.4942 L349.175,870.4942 C364.175,870.4942 364.175,792.3583 379.175,792.3583 L389.175,792.3583 " fill="none" style="stroke:#181818;stroke-width:1;"/><rect fill="#ECE1F5" height="58.1358" rx="12.5" ry="12.5" style="stroke:#181818;stroke-width:1.5;" width="94.3957" x="389.175" y="841.4263"/><text fill="#000000" font-family="sans-serif" font-size="14" lengthAdjust="spacing" textLength="28.6859" x="399.175" y="866.3922">TIPS</text><text fill="#000000" font-family="sans-serif" font-size="14" lengthAdjust="spacing" textLength="74.3957" x="399.175" y="885.4601">(AC.FI.TIPS)</text><path d="M339.175,870.4942 L349.175,870.4942 C364.175,870.4942 364.175,870.4942 379.175,870.4942 L389.175,870.4942 " fill="none" style="stroke:#181818;stroke-width:1;"/><rect fill="#ECE1F5" height="58.1358" rx="12.5" ry="12.5" style="stroke:#181818;stroke-width:1.5;" width="182.2734" x="389.175" y="919.5621"/><text fill="#000000" font-family="sans-serif" font-size="14" lengthAdjust="spacing" textLength="162.2734" x="399.175" y="944.528">Investment Grade Credit</text><text fill="#000000" font-family="sans-serif" font-size="14" lengthAdjust="spacing" textLength="114.9535" x="399.175" y="963.5959">(AC.FI.IG_CREDIT)</text><path d="M339.175,870.4942 L349.175,870.4942 C364.175,870.4942 364.175,948.63 379.175,948.63 L389.175,948.63 " fill="none" style="stroke:#181818;stroke-width:1;"/><rect fill="#ECE1F5" height="58.1358" rx="12.5" ry="12.5" style="stroke:#181818;stroke-width:1.5;" width="145.6215" x="389.175" y="997.6979"/><text fill="#000000" font-family="sans-serif" font-size="14" lengthAdjust="spacing" textLength="66.5417" x="399.175" y="1022.6639">High Yield</text><text fill="#000000" font-family="sans-serif" font-size="14" lengthAdjust="spacing" textLength="125.6215" x="399.175" y="1041.7318">(AC.FI.HIGH_YIELD)</text><path d="M339.175,870.4942 L349.175,870.4942 C364.175,870.4942 364.175,1026.7658 379.175,1026.7658 L389.175,1026.7658 " fill="none" style="stroke:#181818;stroke-width:1;"/><rect fill="#ECE1F5" height="58.1358" rx="12.5" ry="12.5" style="stroke:#181818;stroke-width:1.5;" width="150.0595" x="389.175" y="1075.8338"/><text fill="#000000" font-family="sans-serif" font-size="14" lengthAdjust="spacing" textLength="70.7277" x="399.175" y="1100.7997">Municipals</text><text fill="#000000" font-family="sans-serif" font-size="14" lengthAdjust="spacing" textLength="130.0595" x="399.175" y="1119.8676">(AC.FI.MUNICIPALS)</text><path d="M339.175,870.4942 L349.175,870.4942 C364.175,870.4942 364.175,1104.9017 379.175,1104.9017 L389.175,1104.9017 " fill="none" style="stroke:#181818;stroke-width:1;"/><rect fill="#ECE1F5" height="58.1358" rx="12.5" ry="12.5" style="stroke:#181818;stroke-width:1.5;" width="174.2794" x="389.175" y="1153.9696"/><text fill="#000000" font-family="sans-serif" font-size="14" lengthAdjust="spacing" textLength="154.2794" x="399.175" y="1178.9355">International / EM Debt</text><text fill="#000000" font-family="sans-serif" font-size="14" lengthAdjust="spacing" textLength="102.9136" x="399.175" y="1198.0034">(AC.FI.INTL_EM)</text><path d="M339.175,870.4942 L349.175,870.4942 C364.175,870.4942 364.175,1183.0375 379.175,1183.0375 L389.175,1183.0375 " fill="none" style="stroke:#181818;stroke-width:1;"/><path d="M139.1436,1143.9696 L149.1436,1143.9696 C164.1436,1143.9696 164.1436,870.4942 179.1436,870.4942 L189.1436,870.4942 " fill="none" style="stroke:#181818;stroke-width:1;"/><rect fill="#E8FE9C" height="58.1358" rx="12.5" ry="12.5" style="stroke:#181818;stroke-width:1.5;" width="98.1757" x="189.1436" y="1583.7167"/><text fill="#000000" font-family="sans-serif" font-size="14" lengthAdjust="spacing" textLength="78.1757" x="199.1436" y="1608.6826">Alternatives</text><text fill="#000000" font-family="sans-serif" font-size="14" lengthAdjust="spacing" textLength="61.6978" x="199.1436" y="1627.7505">(AC.ALTS)</text><rect fill="#F6FDD6" height="58.1358" rx="12.5" ry="12.5" style="stroke:#181818;stroke-width:1.5;" width="241.4091" x="337.3193" y="1232.1054"/><text fill="#000000" font-family="sans-serif" font-size="14" lengthAdjust="spacing" textLength="221.4091" x="347.3193" y="1257.0714">Real Estate (Public REITs / Private)</text><text fill="#000000" font-family="sans-serif" font-size="14" lengthAdjust="spacing" textLength="81.9417" x="347.3193" y="1276.1393">(AC.ALTS.RE)</text><path d="M287.3193,1612.7846 L297.3193,1612.7846 C312.3193,1612.7846 312.3193,1261.1733 327.3193,1261.1733 L337.3193,1261.1733 " fill="none" style="stroke:#181818;stroke-width:1;"/><rect fill="#F6FDD6" height="58.1358" rx="12.5" ry="12.5" style="stroke:#181818;stroke-width:1.5;" width="202.6853" x="337.3193" y="1310.2413"/><text fill="#000000" font-family="sans-serif" font-size="14" lengthAdjust="spacing" textLength="182.6853" x="347.3193" y="1335.2072">Commodities (Gold / Broad)</text><text fill="#000000" font-family="sans-serif" font-size="14" lengthAdjust="spacing" textLength="110.6276" x="347.3193" y="1354.2751">(AC.ALTS.COMM)</text><path d="M287.3193,1612.7846 L297.3193,1612.7846 C312.3193,1612.7846 312.3193,1339.3092 327.3193,1339.3092 L337.3193,1339.3092 " fill="none" style="stroke:#181818;stroke-width:1;"/><rect fill="#F6FDD6" height="58.1358" rx="12.5" ry="12.5" style="stroke:#181818;stroke-width:1.5;" width="243.4111" x="337.3193" y="1388.3771"/><text fill="#000000" font-family="sans-serif" font-size="14" lengthAdjust="spacing" textLength="223.4111" x="347.3193" y="1413.343">Market Neutral / Hedge Fund-Like</text><text fill="#000000" font-family="sans-serif" font-size="14" lengthAdjust="spacing" textLength="162.2453" x="347.3193" y="1432.4109">(AC.ALTS.MKT_NEUTRAL)</text><path d="M287.3193,1612.7846 L297.3193,1612.7846 C312.3193,1612.7846 312.3193,1417.445 327.3193,1417.445 L337.3193,1417.445 " fill="none" style="stroke:#181818;stroke-width:1;"/><rect fill="#F6FDD6" height="58.1358" rx="12.5" ry="12.5" style="stroke:#181818;stroke-width:1.5;" width="196.5113" x="337.3193" y="1466.5129"/><text fill="#000000" font-family="sans-serif" font-size="14" lengthAdjust="spacing" textLength="176.5113" x="347.3193" y="1491.4789">Systematic / Multi-Strategy</text><text fill="#000000" font-family="sans-serif" font-size="14" lengthAdjust="spacing" textLength="137.7595" x="347.3193" y="1510.5468">(AC.ALTS.SYS_MULTI)</text><path d="M287.3193,1612.7846 L297.3193,1612.7846 C312.3193,1612.7846 312.3193,1495.5808 327.3193,1495.5808 L337.3193,1495.5808 " fill="none" style="stroke:#181818;stroke-width:1;"/><rect fill="#F6FDD6" height="58.1358" rx="12.5" ry="12.5" style="stroke:#181818;stroke-width:1.5;" width="223.7552" x="337.3193" y="1544.6488"/><text fill="#000000" font-family="sans-serif" font-size="14" lengthAdjust="spacing" textLength="203.7552" x="347.3193" y="1569.6147">Defined-Outcome / Buffer ETFs</text><text fill="#000000" font-family="sans-serif" font-size="14" lengthAdjust="spacing" textLength="115.8075" x="347.3193" y="1588.6826">(AC.ALTS.BUFFER)</text><path d="M287.3193,1612.7846 L297.3193,1612.7846 C312.3193,1612.7846 312.3193,1573.7167 327.3193,1573.7167 L337.3193,1573.7167 " fill="none" style="stroke:#181818;stroke-width:1;"/><rect fill="#F6FDD6" height="58.1358" rx="12.5" ry="12.5" style="stroke:#181818;stroke-width:1.5;" width="175.7774" x="337.3193" y="1622.7846"/><text fill="#000000" font-family="sans-serif" font-size="14" lengthAdjust="spacing" textLength="155.7774" x="347.3193" y="1647.7505">Private Markets (Equity)</text><text fill="#000000" font-family="sans-serif" font-size="14" lengthAdjust="spacing" textLength="148.9314" x="347.3193" y="1666.8184">(AC.ALTS.PRIV.EQUITY)</text><path d="M287.3193,1612.7846 L297.3193,1612.7846 C312.3193,1612.7846 312.3193,1651.8525 327.3193,1651.8525 L337.3193,1651.8525 " fill="none" style="stroke:#181818;stroke-width:1;"/><rect fill="#F6FDD6" height="58.1358" rx="12.5" ry="12.5" style="stroke:#181818;stroke-width:1.5;" width="174.7274" x="337.3193" y="1700.9204"/><text fill="#000000" font-family="sans-serif" font-size="14" lengthAdjust="spacing" textLength="154.7274" x="347.3193" y="1725.8864">Private Markets (Credit)</text><text fill="#000000" font-family="sans-serif" font-size="14" lengthAdjust="spacing" textLength="147.6154" x="347.3193" y="1744.9543">(AC.ALTS.PRIV.CREDIT)</text><path d="M287.3193,1612.7846 L297.3193,1612.7846 C312.3193,1612.7846 312.3193,1729.9883 327.3193,1729.9883 L337.3193,1729.9883 " fill="none" style="stroke:#181818;stroke-width:1;"/><rect fill="#F6FDD6" height="58.1358" rx="12.5" ry="12.5" style="stroke:#181818;stroke-width:1.5;" width="167.6014" x="337.3193" y="1779.0563"/><text fill="#000000" font-family="sans-serif" font-size="14" lengthAdjust="spacing" textLength="81.6757" x="347.3193" y="1804.0222">Crypto (BTC)</text><text fill="#000000" font-family="sans-serif" font-size="14" lengthAdjust="spacing" textLength="147.6014" x="347.3193" y="1823.0901">(AC.ALTS.CRYPTO.BTC)</text><path d="M287.3193,1612.7846 L297.3193,1612.7846 C312.3193,1612.7846 312.3193,1808.1242 327.3193,1808.1242 L337.3193,1808.1242 " fill="none" style="stroke:#181818;stroke-width:1;"/><rect fill="#F6FDD6" height="58.1358" rx="12.5" ry="12.5" style="stroke:#181818;stroke-width:1.5;" width="167.8114" x="337.3193" y="1857.1921"/><text fill="#000000" font-family="sans-serif" font-size="14" lengthAdjust="spacing" textLength="81.8857" x="347.3193" y="1882.158">Crypto (ETH)</text><text fill="#000000" font-family="sans-serif" font-size="14" lengthAdjust="spacing" textLength="147.8114" x="347.3193" y="1901.2259">(AC.ALTS.CRYPTO.ETH)</text><path d="M287.3193,1612.7846 L297.3193,1612.7846 C312.3193,1612.7846 312.3193,1886.26 327.3193,1886.26 L337.3193,1886.26 " fill="none" style="stroke:#181818;stroke-width:1;"/><rect fill="#F6FDD6" height="58.1358" rx="12.5" ry="12.5" style="stroke:#181818;stroke-width:1.5;" width="165.2354" x="337.3193" y="1935.3279"/><text fill="#000000" font-family="sans-serif" font-size="14" lengthAdjust="spacing" textLength="125.8175" x="347.3193" y="1960.2939">Crypto (Diversified)</text><text fill="#000000" font-family="sans-serif" font-size="14" lengthAdjust="spacing" textLength="145.2354" x="347.3193" y="1979.3618">(AC.ALTS.CRYPTO.DIV)</text><path d="M287.3193,1612.7846 L297.3193,1612.7846 C312.3193,1612.7846 312.3193,1964.3958 327.3193,1964.3958 L337.3193,1964.3958 " fill="none" style="stroke:#181818;stroke-width:1;"/><path d="M139.1436,1143.9696 L149.1436,1143.9696 C164.1436,1143.9696 164.1436,1612.7846 179.1436,1612.7846 L189.1436,1612.7846 " fill="none" style="stroke:#181818;stroke-width:1;"/><rect fill="#C1D8B3" height="58.1358" rx="12.5" ry="12.5" style="stroke:#181818;stroke-width:1.5;" width="180.8314" x="189.1436" y="2091.5996"/><text fill="#000000" font-family="sans-serif" font-size="14" lengthAdjust="spacing" textLength="160.8314" x="199.1436" y="2116.5655">Cash &amp; Cash Equivalents</text><text fill="#000000" font-family="sans-serif" font-size="14" lengthAdjust="spacing" textLength="65.7997" x="199.1436" y="2135.6334">(AC.CASH)</text><rect fill="#E3EEDB" height="58.1358" rx="12.5" ry="12.5" style="stroke:#181818;stroke-width:1.5;" width="221.7392" x="419.9749" y="2013.4638"/><text fill="#000000" font-family="sans-serif" font-size="14" lengthAdjust="spacing" textLength="201.7392" x="429.9749" y="2038.4297">Money Market / Bank Deposits</text><text fill="#000000" font-family="sans-serif" font-size="14" lengthAdjust="spacing" textLength="180.3333" x="429.9749" y="2057.4976">(AC.CASH.MONEY_MARKET)</text><path d="M369.9749,2120.6675 L379.9749,2120.6675 C394.9749,2120.6675 394.9749,2042.5317 409.9749,2042.5317 L419.9749,2042.5317 " fill="none" style="stroke:#181818;stroke-width:1;"/><rect fill="#E3EEDB" height="58.1358" rx="12.5" ry="12.5" style="stroke:#181818;stroke-width:1.5;" width="133.5396" x="419.9749" y="2091.5996"/><text fill="#000000" font-family="sans-serif" font-size="14" lengthAdjust="spacing" textLength="84.5876" x="429.9749" y="2116.5655">T-Bills (1-6m)</text><text fill="#000000" font-family="sans-serif" font-size="14" lengthAdjust="spacing" textLength="113.5396" x="429.9749" y="2135.6334">(AC.CASH.TBILLS)</text><path d="M369.9749,2120.6675 L379.9749,2120.6675 C394.9749,2120.6675 394.9749,2120.6675 409.9749,2120.6675 L419.9749,2120.6675 " fill="none" style="stroke:#181818;stroke-width:1;"/><rect fill="#E3EEDB" height="58.1358" rx="12.5" ry="12.5" style="stroke:#181818;stroke-width:1.5;" width="182.3854" x="419.9749" y="2169.7354"/><text fill="#000000" font-family="sans-serif" font-size="14" lengthAdjust="spacing" textLength="162.3854" x="429.9749" y="2194.7014">Short-Term Cash Proxies</text><text fill="#000000" font-family="sans-serif" font-size="14" lengthAdjust="spacing" textLength="158.2274" x="429.9749" y="2213.7693">(AC.CASH.SHORT_TERM)</text><path d="M369.9749,2120.6675 L379.9749,2120.6675 C394.9749,2120.6675 394.9749,2198.8033 409.9749,2198.8033 L419.9749,2198.8033 " fill="none" style="stroke:#181818;stroke-width:1;"/><path d="M139.1436,1143.9696 L149.1436,1143.9696 C164.1436,1143.9696 164.1436,2120.6675 179.1436,2120.6675 L189.1436,2120.6675 " fill="none" style="stroke:#181818;stroke-width:1;"/><!--SRC=[xPTjS-8s4CVV-rFiJ6TQk2c-oyFbahoACG9yiS6rHUPec_48B40zMwAop8L- -guX46BIz0lm2cBlRxMx-kzkk2iCqoONCitP4YRwALbcPP4OzgIaojVMBn2hKayvg1aONPh5BJo_4xpuYFQjohurMMibxHrb_rKeYQXR5aRb42fjPYeJ2aAkPqhdJAB3dJ4qgFDjE1W6uwGtyZh4pjEc3PTGP9olUF4hd5z3njdcwyKvI9NomaRd0_m26Plmh81YeNv0AefbnjOWMSw1oHJCWiDoTxQRiQ8GCp5bHYXvpzUsPHbXCWxjw5ihn2IWqQwoQ4AhzNxaT5SSwyCHR7tuyCTFx6BsXNr-1F9tASpwJzbmN9lyDlBek7gF1fpDRjARHnZ5u2gD8N333itiKMoxmuWaRKATOwRBfaRf0dw6sAmpNjJHhkFIOHGdCHtx93xcUrhzC0lu20yiApb-nk8VNdUoWPFO-vtK77ZIS2qtPMGPTF2IChNawIlU6r3Vxf276afohkT2pY5W-ZitnJ53WXeIyofNZ94kU8w7JbynCQaoJMYV10xrt6tv9rzkFgNNZz0LJpp5SASgVywkwtqZdSGRkCDWdzMKdytmhZRtuCpdci-PsPjlRy7fzMhML7DMb1fx01hn0bNIt1Cq7cFn-iE8liDiQfZpLE1PDHJBGAA0T3o7adSy-4hEQwG_71p5wONnYn7-KNllIUmhatDfK1GC6yhL69JP8rulSIECfPvBNymNC1OyI_UcVQ_NJyOUyJirsw2KOYgMB2lsji5euBbUwFZ7yHngwoEG00KsEOW7DP9iDOBGzOpVJ1_1oPwXrQuL79_kFC-kPcbwzGWHHuS4fvtXq0ZBIIQc416F5dXAgCNgvI8gs8v8ZNTLdYiipQRuFPMboBMrOkaXXReAQjnMwJ3WfT6RbFeydNFebZ9j-U8xFw23UveCo8X6Zbzp4gyBirK_EWZAp8XMZEuCdwyFUDH04enywjNe3fy9oTFMi3HLArI1bxCPrq1ezw1WTdlKxPAe1Z_NPjUnqDWEjSEimyXxU3tV_XFUoki8VgMnVSNrUcaK3bRglgfnD0xfqAwUlcrFQFyD- -hfs_OTr8skLWDFt-0wtiDMRTEpz7foWHWh5ZXvDnzLBLOim_PvhgFhnBjZ-0NdwGG5e2HVxsI0fMVoEzx8KXNY4BA3uO2Cay29xWcjUQ2jjiXmopNEMbTvyu2XRSz_QQ5dwyquQb4SBziOGwsU13yyQZESachADAqxZfj_k_qjw-v__XauBSpJmZmjpDF2F2tCqy8yBKnSc676f1a5FcmAeYISsUUVpY_jwqPN2_o5keApp_3fvlRoylRo2iAOGlMwQJLweG_5zeSr_cmrMapAgeMRrbUsOX2LqeYSty9moUNNpltk0H2v4hWqg_5ZVNq8NWokBZ5bWxDVOoJm45WeOOQoHsAAJIZdjp2YtTQrvJCvBzaSVNDfkGhzwlKjo3BB_WK0]--></g></svg>